<svg width="767" height="316" viewBox="0 0 767 316" fill="none" xmlns="http://www.w3.org/2000/svg">
<path d="M0 28V20.5L19 6H185V17L169.5 28H0Z" fill="black"/>
<path d="M0 130L29.5 108H185V130H0Z" fill="black"/>
<rect y="129" width="23" height="120" fill="black"/>
<rect x="23" y="226" width="162" height="23" fill="black"/>
<path d="M216 28V20.5L233.5 6H399V17L384 28H216Z" fill="#5D79FF"/>
<path d="M216 129L246 108H399V129H216Z" fill="#5D79FF"/>
<rect x="216" y="129" width="21" height="120" fill="#5D79FF"/>
<path d="M437 68.5L458 52V249H437V68.5Z" fill="black"/>
<path d="M437 41V15.5L458 0V26L438.5 41H437Z" fill="#7ED957"/>
<path d="M612.5 8C674.632 8 725 59.0395 725 122C725 184.96 674.632 236 612.5 236C550.368 236 500 184.96 500 122C500 59.0395 550.368 8 612.5 8ZM612.5 30C561.966 30 521 70.9659 521 121.5C521 172.034 561.966 213 612.5 213C663.034 213 704 172.034 704 121.5C704 70.9659 663.034 30 612.5 30Z" fill="black"/>
<rect x="688.378" y="172" width="55.4225" height="22.5943" transform="rotate(42.8901 688.378 172)" fill="#7ED957"/>
<rect x="737.378" y="219" width="14.2385" height="22.5943" transform="rotate(42.8901 737.378 219)" fill="#7ED957"/>
<rect x="756.378" y="236" width="14.2385" height="22.5943" transform="rotate(42.8901 756.378 236)" fill="#7ED957"/>
<path d="M156.747 302C155.493 302 154.334 301.696 153.27 301.088C152.244 300.48 151.427 299.663 150.819 298.637C150.211 297.573 149.907 296.414 149.907 295.16V293.564H154.524V295.16C154.524 295.768 154.733 296.3 155.151 296.756C155.607 297.174 156.139 297.383 156.747 297.383H184.107C184.715 297.383 185.228 297.174 185.646 296.756C186.102 296.3 186.33 295.768 186.33 295.16V285.983C186.33 285.375 186.102 284.862 185.646 284.444C185.228 284.026 184.715 283.817 184.107 283.817H156.747C155.493 283.817 154.334 283.513 153.27 282.905C152.244 282.259 151.427 281.423 150.819 280.397C150.211 279.371 149.907 278.231 149.907 276.977V267.8C149.907 266.546 150.211 265.406 150.819 264.38C151.427 263.316 152.244 262.48 153.27 261.872C154.334 261.264 155.493 260.96 156.747 260.96H184.107C185.361 260.96 186.501 261.264 187.527 261.872C188.591 262.48 189.427 263.316 190.035 264.38C190.643 265.406 190.947 266.546 190.947 267.8V269.396H186.33V267.8C186.33 267.192 186.102 266.679 185.646 266.261C185.228 265.805 184.715 265.577 184.107 265.577H156.747C156.139 265.577 155.607 265.805 155.151 266.261C154.733 266.679 154.524 267.192 154.524 267.8V276.977C154.524 277.585 154.733 278.098 155.151 278.516C155.607 278.934 156.139 279.143 156.747 279.143H184.107C185.361 279.143 186.501 279.466 187.527 280.112C188.591 280.72 189.427 281.537 190.035 282.563C190.643 283.589 190.947 284.729 190.947 285.983V295.16C190.947 296.414 190.643 297.573 190.035 298.637C189.427 299.663 188.591 300.48 187.527 301.088C186.501 301.696 185.361 302 184.107 302H156.747ZM227.727 302C226.473 302 225.314 301.696 224.25 301.088C223.224 300.48 222.407 299.663 221.799 298.637C221.191 297.573 220.887 296.414 220.887 295.16V267.8C220.887 266.546 221.191 265.406 221.799 264.38C222.407 263.316 223.224 262.48 224.25 261.872C225.314 261.264 226.473 260.96 227.727 260.96H255.087C256.341 260.96 257.481 261.264 258.507 261.872C259.571 262.48 260.407 263.316 261.015 264.38C261.623 265.406 261.927 266.546 261.927 267.8V295.16C261.927 296.414 261.623 297.573 261.015 298.637C260.407 299.663 259.571 300.48 258.507 301.088C257.481 301.696 256.341 302 255.087 302H227.727ZM227.727 297.383H255.087C255.695 297.383 256.208 297.174 256.626 296.756C257.082 296.3 257.31 295.768 257.31 295.16V267.8C257.31 267.192 257.082 266.679 256.626 266.261C256.208 265.805 255.695 265.577 255.087 265.577H227.727C227.119 265.577 226.587 265.805 226.131 266.261C225.713 266.679 225.504 267.192 225.504 267.8V295.16C225.504 295.768 225.713 296.3 226.131 296.756C226.587 297.174 227.119 297.383 227.727 297.383ZM292.201 302V260.903H296.818V297.383H333.241V302H292.201ZM367.23 302C365.976 302 364.817 301.696 363.753 301.088C362.727 300.48 361.91 299.663 361.302 298.637C360.694 297.573 360.39 296.414 360.39 295.16V260.96H365.007V295.16C365.007 295.768 365.216 296.3 365.634 296.756C366.09 297.174 366.622 297.383 367.23 297.383H394.59C395.198 297.383 395.711 297.174 396.129 296.756C396.585 296.3 396.813 295.768 396.813 295.16V260.96H401.43V295.16C401.43 296.414 401.126 297.573 400.518 298.637C399.91 299.663 399.074 300.48 398.01 301.088C396.984 301.696 395.844 302 394.59 302H367.23ZM447.835 302V265.577H429.595V260.96H470.635V265.577H452.452V302H447.835ZM499.408 302V260.96H504.082V302H499.408ZM541.695 302C540.441 302 539.282 301.696 538.218 301.088C537.192 300.48 536.375 299.663 535.767 298.637C535.159 297.573 534.855 296.414 534.855 295.16V267.8C534.855 266.546 535.159 265.406 535.767 264.38C536.375 263.316 537.192 262.48 538.218 261.872C539.282 261.264 540.441 260.96 541.695 260.96H569.055C570.309 260.96 571.449 261.264 572.475 261.872C573.539 262.48 574.375 263.316 574.983 264.38C575.591 265.406 575.895 266.546 575.895 267.8V295.16C575.895 296.414 575.591 297.573 574.983 298.637C574.375 299.663 573.539 300.48 572.475 301.088C571.449 301.696 570.309 302 569.055 302H541.695ZM541.695 297.383H569.055C569.663 297.383 570.176 297.174 570.594 296.756C571.05 296.3 571.278 295.768 571.278 295.16V267.8C571.278 267.192 571.05 266.679 570.594 266.261C570.176 265.805 569.663 265.577 569.055 265.577H541.695C541.087 265.577 540.555 265.805 540.099 266.261C539.681 266.679 539.472 267.192 539.472 267.8V295.16C539.472 295.768 539.681 296.3 540.099 296.756C540.555 297.174 541.087 297.383 541.695 297.383ZM606.112 302V260.96H612.439L642.535 296.756V260.96H647.152V302H640.825L610.729 266.204V302H606.112ZM684.033 302C682.779 302 681.62 301.696 680.556 301.088C679.53 300.48 678.713 299.663 678.105 298.637C677.497 297.573 677.193 296.414 677.193 295.16V293.564H681.81V295.16C681.81 295.768 682.019 296.3 682.437 296.756C682.893 297.174 683.425 297.383 684.033 297.383H711.393C712.001 297.383 712.514 297.174 712.932 296.756C713.388 296.3 713.616 295.768 713.616 295.16V285.983C713.616 285.375 713.388 284.862 712.932 284.444C712.514 284.026 712.001 283.817 711.393 283.817H684.033C682.779 283.817 681.62 283.513 680.556 282.905C679.53 282.259 678.713 281.423 678.105 280.397C677.497 279.371 677.193 278.231 677.193 276.977V267.8C677.193 266.546 677.497 265.406 678.105 264.38C678.713 263.316 679.53 262.48 680.556 261.872C681.62 261.264 682.779 260.96 684.033 260.96H711.393C712.647 260.96 713.787 261.264 714.813 261.872C715.877 262.48 716.713 263.316 717.321 264.38C717.929 265.406 718.233 266.546 718.233 267.8V269.396H713.616V267.8C713.616 267.192 713.388 266.679 712.932 266.261C712.514 265.805 712.001 265.577 711.393 265.577H684.033C683.425 265.577 682.893 265.805 682.437 266.261C682.019 266.679 681.81 267.192 681.81 267.8V276.977C681.81 277.585 682.019 278.098 682.437 278.516C682.893 278.934 683.425 279.143 684.033 279.143H711.393C712.647 279.143 713.787 279.466 714.813 280.112C715.877 280.72 716.713 281.537 717.321 282.563C717.929 283.589 718.233 284.729 718.233 285.983V295.16C718.233 296.414 717.929 297.573 717.321 298.637C716.713 299.663 715.877 300.48 714.813 301.088C713.787 301.696 712.647 302 711.393 302H684.033Z" fill="black"/>
</svg>
