<svg width="1080" height="1080" viewBox="0 0 1080 1080" fill="none" xmlns="http://www.w3.org/2000/svg">
<rect width="1080" height="1080" fill="black"/>
<path d="M183 421V413.5L202 399H368V410L352.5 421H183Z" fill="white"/>
<path d="M183 523L212.5 501H368V523H183Z" fill="white"/>
<rect x="183" y="522" width="23" height="120" fill="white"/>
<rect x="206" y="619" width="162" height="23" fill="white"/>
<path d="M399 421V413.5L416.5 399H582V410L567 421H399Z" fill="#5D79FF"/>
<path d="M399 522L429 501H582V522H399Z" fill="#5D79FF"/>
<rect x="399" y="522" width="21" height="120" fill="#5D79FF"/>
<path d="M620 461.5L641 445V642H620V461.5Z" fill="white"/>
<path d="M620 434V408.5L641 393V419L621.5 434H620Z" fill="#7ED957"/>
<path d="M795.5 401C857.632 401 908 452.04 908 515C908 577.96 857.632 629 795.5 629C733.368 629 683 577.96 683 515C683 452.04 733.368 401 795.5 401ZM795.5 423C744.966 423 704 463.966 704 514.5C704 565.034 744.966 606 795.5 606C846.034 606 887 565.034 887 514.5C887 463.966 846.034 423 795.5 423Z" fill="white"/>
<rect x="871.378" y="565" width="55.4225" height="22.5943" transform="rotate(42.8901 871.378 565)" fill="#7ED957"/>
<rect x="920.378" y="612" width="14.2385" height="22.5943" transform="rotate(42.8901 920.378 612)" fill="#7ED957"/>
<rect x="939.378" y="629" width="14.2385" height="22.5943" transform="rotate(42.8901 939.378 629)" fill="#7ED957"/>
<path d="M339.747 695C338.493 695 337.334 694.696 336.27 694.088C335.244 693.48 334.427 692.663 333.819 691.637C333.211 690.573 332.907 689.414 332.907 688.16V686.564H337.524V688.16C337.524 688.768 337.733 689.3 338.151 689.756C338.607 690.174 339.139 690.383 339.747 690.383H367.107C367.715 690.383 368.228 690.174 368.646 689.756C369.102 689.3 369.33 688.768 369.33 688.16V678.983C369.33 678.375 369.102 677.862 368.646 677.444C368.228 677.026 367.715 676.817 367.107 676.817H339.747C338.493 676.817 337.334 676.513 336.27 675.905C335.244 675.259 334.427 674.423 333.819 673.397C333.211 672.371 332.907 671.231 332.907 669.977V660.8C332.907 659.546 333.211 658.406 333.819 657.38C334.427 656.316 335.244 655.48 336.27 654.872C337.334 654.264 338.493 653.96 339.747 653.96H367.107C368.361 653.96 369.501 654.264 370.527 654.872C371.591 655.48 372.427 656.316 373.035 657.38C373.643 658.406 373.947 659.546 373.947 660.8V662.396H369.33V660.8C369.33 660.192 369.102 659.679 368.646 659.261C368.228 658.805 367.715 658.577 367.107 658.577H339.747C339.139 658.577 338.607 658.805 338.151 659.261C337.733 659.679 337.524 660.192 337.524 660.8V669.977C337.524 670.585 337.733 671.098 338.151 671.516C338.607 671.934 339.139 672.143 339.747 672.143H367.107C368.361 672.143 369.501 672.466 370.527 673.112C371.591 673.72 372.427 674.537 373.035 675.563C373.643 676.589 373.947 677.729 373.947 678.983V688.16C373.947 689.414 373.643 690.573 373.035 691.637C372.427 692.663 371.591 693.48 370.527 694.088C369.501 694.696 368.361 695 367.107 695H339.747ZM410.727 695C409.473 695 408.314 694.696 407.25 694.088C406.224 693.48 405.407 692.663 404.799 691.637C404.191 690.573 403.887 689.414 403.887 688.16V660.8C403.887 659.546 404.191 658.406 404.799 657.38C405.407 656.316 406.224 655.48 407.25 654.872C408.314 654.264 409.473 653.96 410.727 653.96H438.087C439.341 653.96 440.481 654.264 441.507 654.872C442.571 655.48 443.407 656.316 444.015 657.38C444.623 658.406 444.927 659.546 444.927 660.8V688.16C444.927 689.414 444.623 690.573 444.015 691.637C443.407 692.663 442.571 693.48 441.507 694.088C440.481 694.696 439.341 695 438.087 695H410.727ZM410.727 690.383H438.087C438.695 690.383 439.208 690.174 439.626 689.756C440.082 689.3 440.31 688.768 440.31 688.16V660.8C440.31 660.192 440.082 659.679 439.626 659.261C439.208 658.805 438.695 658.577 438.087 658.577H410.727C410.119 658.577 409.587 658.805 409.131 659.261C408.713 659.679 408.504 660.192 408.504 660.8V688.16C408.504 688.768 408.713 689.3 409.131 689.756C409.587 690.174 410.119 690.383 410.727 690.383ZM475.201 695V653.903H479.818V690.383H516.241V695H475.201ZM550.23 695C548.976 695 547.817 694.696 546.753 694.088C545.727 693.48 544.91 692.663 544.302 691.637C543.694 690.573 543.39 689.414 543.39 688.16V653.96H548.007V688.16C548.007 688.768 548.216 689.3 548.634 689.756C549.09 690.174 549.622 690.383 550.23 690.383H577.59C578.198 690.383 578.711 690.174 579.129 689.756C579.585 689.3 579.813 688.768 579.813 688.16V653.96H584.43V688.16C584.43 689.414 584.126 690.573 583.518 691.637C582.91 692.663 582.074 693.48 581.01 694.088C579.984 694.696 578.844 695 577.59 695H550.23ZM630.835 695V658.577H612.595V653.96H653.635V658.577H635.452V695H630.835ZM682.408 695V653.96H687.082V695H682.408ZM724.695 695C723.441 695 722.282 694.696 721.218 694.088C720.192 693.48 719.375 692.663 718.767 691.637C718.159 690.573 717.855 689.414 717.855 688.16V660.8C717.855 659.546 718.159 658.406 718.767 657.38C719.375 656.316 720.192 655.48 721.218 654.872C722.282 654.264 723.441 653.96 724.695 653.96H752.055C753.309 653.96 754.449 654.264 755.475 654.872C756.539 655.48 757.375 656.316 757.983 657.38C758.591 658.406 758.895 659.546 758.895 660.8V688.16C758.895 689.414 758.591 690.573 757.983 691.637C757.375 692.663 756.539 693.48 755.475 694.088C754.449 694.696 753.309 695 752.055 695H724.695ZM724.695 690.383H752.055C752.663 690.383 753.176 690.174 753.594 689.756C754.05 689.3 754.278 688.768 754.278 688.16V660.8C754.278 660.192 754.05 659.679 753.594 659.261C753.176 658.805 752.663 658.577 752.055 658.577H724.695C724.087 658.577 723.555 658.805 723.099 659.261C722.681 659.679 722.472 660.192 722.472 660.8V688.16C722.472 688.768 722.681 689.3 723.099 689.756C723.555 690.174 724.087 690.383 724.695 690.383ZM789.112 695V653.96H795.439L825.535 689.756V653.96H830.152V695H823.825L793.729 659.204V695H789.112ZM867.033 695C865.779 695 864.62 694.696 863.556 694.088C862.53 693.48 861.713 692.663 861.105 691.637C860.497 690.573 860.193 689.414 860.193 688.16V686.564H864.81V688.16C864.81 688.768 865.019 689.3 865.437 689.756C865.893 690.174 866.425 690.383 867.033 690.383H894.393C895.001 690.383 895.514 690.174 895.932 689.756C896.388 689.3 896.616 688.768 896.616 688.16V678.983C896.616 678.375 896.388 677.862 895.932 677.444C895.514 677.026 895.001 676.817 894.393 676.817H867.033C865.779 676.817 864.62 676.513 863.556 675.905C862.53 675.259 861.713 674.423 861.105 673.397C860.497 672.371 860.193 671.231 860.193 669.977V660.8C860.193 659.546 860.497 658.406 861.105 657.38C861.713 656.316 862.53 655.48 863.556 654.872C864.62 654.264 865.779 653.96 867.033 653.96H894.393C895.647 653.96 896.787 654.264 897.813 654.872C898.877 655.48 899.713 656.316 900.321 657.38C900.929 658.406 901.233 659.546 901.233 660.8V662.396H896.616V660.8C896.616 660.192 896.388 659.679 895.932 659.261C895.514 658.805 895.001 658.577 894.393 658.577H867.033C866.425 658.577 865.893 658.805 865.437 659.261C865.019 659.679 864.81 660.192 864.81 660.8V669.977C864.81 670.585 865.019 671.098 865.437 671.516C865.893 671.934 866.425 672.143 867.033 672.143H894.393C895.647 672.143 896.787 672.466 897.813 673.112C898.877 673.72 899.713 674.537 900.321 675.563C900.929 676.589 901.233 677.729 901.233 678.983V688.16C901.233 689.414 900.929 690.573 900.321 691.637C899.713 692.663 898.877 693.48 897.813 694.088C896.787 694.696 895.647 695 894.393 695H867.033Z" fill="white"/>
</svg>
