<svg width="1465" height="1216" viewBox="0 0 1465 1216" fill="none" xmlns="http://www.w3.org/2000/svg">
<line x1="556" y1="802.5" x2="423" y2="802.5" stroke="#5D79FF" stroke-width="165"/>
<line x1="309.5" y1="689" x2="309.5" y2="480" stroke="#5D79FF" stroke-width="165"/>
<path d="M752 688.5C752 714.305 746.917 739.857 737.042 763.697C727.167 787.538 712.693 809.2 694.446 827.446C676.2 845.693 654.538 860.167 630.697 870.042C606.857 879.917 581.305 885 555.5 885L555.5 720.017C559.639 720.017 563.737 719.201 567.561 717.618C571.385 716.034 574.859 713.712 577.786 710.786C580.712 707.859 583.034 704.385 584.618 700.561C586.201 696.737 587.017 692.639 587.017 688.5H752Z" fill="#5D79FF"/>
<path d="M423.5 885C397.695 885 372.143 879.917 348.303 870.042C324.462 860.167 302.8 845.693 284.554 827.446C266.307 809.2 251.833 787.538 241.958 763.697C232.083 739.857 227 714.305 227 688.5L391.983 688.5C391.983 692.639 392.799 696.737 394.382 700.561C395.966 704.385 398.288 707.859 401.214 710.786C404.141 713.712 407.615 716.034 411.439 717.618C415.263 719.201 419.361 720.017 423.5 720.017L423.5 885Z" fill="#5D79FF"/>
<mask id="path-5-inside-1_76_2051" fill="white">
<path d="M555.5 244C581.305 244 606.857 249.083 630.697 258.958C654.538 268.833 676.2 283.307 694.446 301.554C712.693 319.8 727.167 341.462 737.042 365.303C746.917 389.143 752 414.695 752 440.5L587.017 440.5C587.017 436.361 586.201 432.263 584.618 428.439C583.034 424.615 580.712 421.141 577.786 418.214C574.859 415.288 571.385 412.966 567.561 411.382C563.737 409.799 559.639 408.983 555.5 408.983L555.5 244Z"/>
</mask>
<path d="M555.5 244C581.305 244 606.857 249.083 630.697 258.958C654.538 268.833 676.2 283.307 694.446 301.554C712.693 319.8 727.167 341.462 737.042 365.303C746.917 389.143 752 414.695 752 440.5L587.017 440.5C587.017 436.361 586.201 432.263 584.618 428.439C583.034 424.615 580.712 421.141 577.786 418.214C574.859 415.288 571.385 412.966 567.561 411.382C563.737 409.799 559.639 408.983 555.5 408.983L555.5 244Z" fill="#7ED957" stroke="#7ED957" stroke-width="2" mask="url(#path-5-inside-1_76_2051)"/>
<path d="M555.5 244.5V408.5H400.266L289.441 244.5H555.5Z" fill="#7ED957" stroke="#7ED957"/>
<path d="M838.38 551V471.8H911.53V488.96H855.65V502.82H900.64V519.98H855.65V533.84H911.53V551H838.38ZM923.699 551V471.8H996.849V488.96H940.969V502.82H985.959V519.98H940.969V551H923.699ZM1001.32 551V471.8H1018.15V551H1001.32ZM1090.74 551V535.16L1107.68 533.84H1116.7V551H1090.74ZM1044.76 551C1041.82 551 1039.11 550.267 1036.62 548.8C1034.12 547.333 1032.14 545.353 1030.68 542.86C1029.21 540.367 1028.48 537.653 1028.48 534.72V488.08C1028.48 485.073 1029.21 482.36 1030.68 479.94C1032.14 477.447 1034.12 475.467 1036.62 474C1039.11 472.533 1041.82 471.8 1044.76 471.8H1091.4C1094.33 471.8 1097.01 472.533 1099.43 474C1101.92 475.467 1103.9 477.447 1105.37 479.94C1106.91 482.36 1107.68 485.073 1107.68 488.08V534.72C1107.68 537.653 1106.91 540.367 1105.37 542.86C1103.9 545.353 1101.92 547.333 1099.43 548.8C1097.01 550.267 1094.33 551 1091.4 551H1044.76ZM1045.53 533.84H1090.41V488.96H1045.53V533.84Z" fill="white"/>
<path d="M864.08 707C858.1 707 852.58 705.467 847.52 702.4C842.46 699.333 838.397 695.27 835.33 690.21C832.263 685.15 830.73 679.63 830.73 673.65V606.95C830.73 600.97 832.263 595.45 835.33 590.39C838.397 585.33 842.46 581.267 847.52 578.2C852.58 575.133 858.1 573.6 864.08 573.6H932.62C938.753 573.6 944.35 575.133 949.41 578.2C954.47 581.267 958.457 585.33 961.37 590.39C964.437 595.45 965.97 600.97 965.97 606.95V673.65C965.97 679.63 964.437 685.15 961.37 690.21C958.457 695.27 954.47 699.333 949.41 702.4C944.35 705.467 938.753 707 932.62 707H864.08ZM865.92 671.81H930.78V608.79H865.92V671.81ZM990.83 707V573.6H1092.72C1098.85 573.6 1104.45 575.133 1109.51 578.2C1114.57 581.267 1118.56 585.33 1121.47 590.39C1124.54 595.45 1126.07 600.97 1126.07 606.95V707H1090.88V608.79H1026.02V707H990.83ZM1183.57 707C1177.59 707 1172.07 705.467 1167.01 702.4C1161.95 699.333 1157.89 695.27 1154.82 690.21C1151.76 685.15 1150.22 679.63 1150.22 673.65V606.95C1150.22 600.97 1151.76 595.45 1154.82 590.39C1157.89 585.33 1161.95 581.267 1167.01 578.2C1172.07 575.133 1177.59 573.6 1183.57 573.6H1252.11C1258.25 573.6 1263.84 575.133 1268.9 578.2C1273.96 581.267 1277.95 585.33 1280.86 590.39C1283.93 595.45 1285.46 600.97 1285.46 606.95V658.01H1185.41V671.81H1285.46V707H1183.57ZM1185.41 627.19H1250.27V608.79H1185.41V627.19Z" fill="white"/>
<rect x="587" y="475" width="165" height="214" fill="#5D79FF"/>
<rect x="587" y="440" width="165" height="35" fill="#7ED957"/>
</svg>
